# xmcd
#
# Track frame offsets: 
#        150
#        22790
#        41965
#        63307
#        76236
#        92085
#        109115
#        124629
#        151899
#        165015
#        185029
#        200748
#        222382
#
# Disc length: 3162 seconds
#
# Revision: 0
# Processed by: cddbd v1.5.2PL0 Copyright (c) Steve Scherf et al.
# Submitted via: ExactAudioCopy v1.0b3
#
DISCID=a60c580d
DTITLE=Kozak's West Coast Blues Revue - Steve Hoot 'N Holler
DYEAR=2007
DGENRE=Blues
TTITLE0=Hoot 'n Holler
TTITLE1=Come By Baby
TTITLE2=Girl of My Dreams
TTITLE3=It Didn't Happen That Way
TTITLE4=I Just Wanna Be With You
TTITLE5=You Got Love for Me
TTITLE6=Rollin' With Brother D
TTITLE7=Almost Bought the Farm
TTITLE8=Juiced
TTITLE9=Right On Time
TTITLE10=Don't Go No Further
TTITLE11=You Got to Lose
TTITLE12=Leavin' Time
EXTD=
EXTT0=
EXTT1=
EXTT2=
EXTT3=
EXTT4=
EXTT5=
EXTT6=
EXTT7=
EXTT8=
EXTT9=
EXTT10=
EXTT11=
EXTT12=
PLAYORDER=
